HIERARCHY
ROOT Hips
{
	OFFSET 0.000000 0.000000 0.000000
	CHANNELS 6 Xposition Yposition Zposition Xrotation Yrotation Zrotation
	JOINT LeftUpLeg_virtual
	{
		OFFSET 0.000000 0.000000 0.000000
		CHANNELS 3 Xrotation Yrotation Zrotation
		JOINT LeftUpLeg
		{
			OFFSET 15.427100 -6.655098 0.678600
			CHANNELS 3 Xrotation Yrotation Zrotation
			JOINT LeftLeg
			{
				OFFSET 4.081073 -39.591068 13.024000
				CHANNELS 3 Xrotation Yrotation Zrotation
				JOINT LeftFoot
				{
					OFFSET -4.081074 -37.707932 -15.979700
					CHANNELS 3 Xrotation Yrotation Zrotation
					JOINT LeftToeBase
					{
						OFFSET 5.346399 -15.068900 20.645000
						CHANNELS 3 Xrotation Yrotation Zrotation
						JOINT LeftToe_End
						{
							OFFSET 2.754700 0.931300 11.300900
							CHANNELS 3 Xrotation Yrotation Zrotation
							End Site
							{
								OFFSET 0 0 0
							}
						}
					}
				}
			}
		}
	}
	JOINT RightUpLeg_virtual
	{
		OFFSET 0.000000 0.000000 0.000000
		CHANNELS 3 Xrotation Yrotation Zrotation
		JOINT RightUpLeg
		{
			OFFSET -15.569500 -6.655098 0.678600
			CHANNELS 3 Xrotation Yrotation Zrotation
			JOINT RightLeg
			{
				OFFSET -4.081825 -39.591045 13.023800
				CHANNELS 3 Xrotation Yrotation Zrotation
				JOINT RightFoot
				{
					OFFSET 4.081824 -37.707954 -15.979600
					CHANNELS 3 Xrotation Yrotation Zrotation
					JOINT RightToeBase
					{
						OFFSET -5.346400 -15.068900 20.645000
						CHANNELS 3 Xrotation Yrotation Zrotation
						JOINT RightToe_End
						{
							OFFSET -2.754700 0.931300 11.300900
							CHANNELS 3 Xrotation Yrotation Zrotation
							End Site
							{
								OFFSET 0 0 0
							}
						}
					}
				}
			}
		}
	}
	JOINT Spine_virtual
	{
		OFFSET 0.000000 0.000000 0.000000
		CHANNELS 3 Xrotation Yrotation Zrotation
		JOINT Spine
		{
			OFFSET -0.279200 12.230698 -2.892100
			CHANNELS 3 Xrotation Yrotation Zrotation
			JOINT Spine1
			{
				OFFSET -0.232667 10.192268 -1.242267
				CHANNELS 3 Xrotation Yrotation Zrotation
				JOINT Spine1_split
				{
					OFFSET -0.232667 10.192268 -1.242267
					CHANNELS 3 Xrotation Yrotation Zrotation
					JOINT Spine2
					{
						OFFSET -0.232667 10.192268 -1.242267
						CHANNELS 3 Xrotation Yrotation Zrotation
						JOINT Neck_virtual
						{
							OFFSET 0.000000 0.000000 0.000000
							CHANNELS 3 Xrotation Yrotation Zrotation
							JOINT Neck
							{
								OFFSET -0.418800 17.814194 8.416900
								CHANNELS 3 Xrotation Yrotation Zrotation
								JOINT Head
								{
									OFFSET 0.000000 7.031097 3.806800
									CHANNELS 3 Xrotation Yrotation Zrotation
									JOINT HeadTop_End
									{
										OFFSET 0.000000 24.646606 12.978600
										CHANNELS 3 Xrotation Yrotation Zrotation
										End Site
										{
											OFFSET 0 0 0
										}
									}
								}
							}
						}
						JOINT LeftShoulder_virtual
						{
							OFFSET 0.000000 0.000000 0.000000
							CHANNELS 3 Xrotation Yrotation Zrotation
							JOINT LeftShoulder
							{
								OFFSET 8.476499 7.247704 -3.868750
								CHANNELS 3 Xrotation Yrotation Zrotation
								JOINT LeftShoulder_split
								{
									OFFSET 8.476499 7.247704 -3.868750
									CHANNELS 3 Xrotation Yrotation Zrotation
									JOINT LeftArm
									{
										OFFSET 9.308998 -2.777710 0.208600
										CHANNELS 3 Xrotation Yrotation Zrotation
										JOINT LeftForeArm
										{
											OFFSET 29.972298 0.000000 0.000000
											CHANNELS 3 Xrotation Yrotation Zrotation
											JOINT LeftHand
											{
												OFFSET 26.026505 0.000000 0.000000
												CHANNELS 3 Xrotation Yrotation Zrotation
												End Site
												{
													OFFSET 0 0 0
												}
											}
										}
									}
								}
							}
						}
						JOINT RightShoulder_virtual
						{
							OFFSET 0.000000 0.000000 0.000000
							CHANNELS 3 Xrotation Yrotation Zrotation
							JOINT RightShoulder
							{
								OFFSET -7.570500 7.247704 -3.868750
								CHANNELS 3 Xrotation Yrotation Zrotation
								JOINT RightShoulder_split
								{
									OFFSET -7.570500 7.247704 -3.868750
									CHANNELS 3 Xrotation Yrotation Zrotation
									JOINT RightArm
									{
										OFFSET -9.308998 -2.777710 0.208500
										CHANNELS 3 Xrotation Yrotation Zrotation
										JOINT RightForeArm
										{
											OFFSET -29.972300 0.000000 0.000000
											CHANNELS 3 Xrotation Yrotation Zrotation
											JOINT RightHand
											{
												OFFSET -26.026505 0.000000 0.000000
												CHANNELS 3 Xrotation Yrotation Zrotation
												End Site
												{
													OFFSET 0 0 0
												}
											}
										}
									}
								}
							}
						}
					}
				}
			}
		}
	}
}
MOTION
Frames: 10
Frame Time: 0.03333333
6.318492 94.678436 -1.049088 0.000000 0.000000 0.000000 -1.766658 -15.888951 -3.340493 -8.766947 23.954010 11.443991 16.239412 9.676706 4.458931 -8.107860 8.386922 -10.464690 2.279575 0.254373 -1.532058 0.000000 0.000000 0.000000 -1.281325 -13.650338 -3.405359 -11.445085 -19.003359 -6.635227 10.114006 9.531971 -3.427940 2.060363 8.674392 6.830048 -0.924399 -0.104784 0.437675 0.000000 0.000000 0.000000 -2.612935 -15.201575 -4.096024 0.659358 -0.513182 -0.596686 0.143263 -1.022397 -0.557092 1.066549 -0.961622 0.134999 0.000000 0.000000 0.000000 0.962693 -0.461366 -0.596276 1.209227 1.195448 2.434267 -1.025476 14.750113 -1.259171 0.000000 0.000000 0.000000 0.560091 -0.267069 -0.678827 -0.494234 8.936801 -0.259358 -5.617286 0.102890 -1.030553 40.729197 -59.779428 -27.687480 0.132135 -28.544575 1.457873 0.000000 0.000000 0.000000 1.060717 -0.534846 -1.040352 5.234823 4.743869 -14.439303 1.266605 4.619911 -0.461404 -39.904287 -17.991277 40.677236 179.795140 70.707600 179.958641 0.000000 0.000000 0.000000 
6.097971 94.683853 -1.060677 0.000000 0.000000 0.000000 -1.774234 -15.554921 -3.313696 -8.857922 23.808472 11.708293 16.275914 9.652545 4.496003 -7.992000 8.163984 -10.698118 2.242503 0.261678 -1.516800 0.000000 0.000000 0.000000 -1.277615 -13.312138 -3.380507 -11.257975 -18.763990 -6.534008 10.256389 9.434924 -3.160845 1.786894 8.083810 6.468751 -0.849304 -0.126526 0.433282 0.000000 0.000000 0.000000 -2.606369 -14.862323 -4.067659 0.621754 -0.493193 -0.489559 0.145162 -1.019350 -0.474571 1.056447 -0.859033 0.118084 0.000000 0.000000 0.000000 0.915394 -0.476387 -0.504835 1.135147 1.189190 2.331352 -1.095478 14.603643 -1.236577 0.000000 0.000000 0.000000 0.512759 -0.255253 -0.607603 -0.464223 8.904034 -0.421227 -5.619544 -0.056230 -0.981813 40.832985 -60.026202 -27.592393 0.080999 -28.524274 1.434401 0.000000 0.000000 0.000000 1.042208 -0.521351 -0.975401 5.201592 4.839761 -13.614910 1.242018 4.594210 -0.525214 -37.346108 -15.400120 40.928409 179.917824 71.435664 179.876433 0.000000 0.000000 0.000000 
5.860524 94.703979 -1.072121 0.000000 0.000000 0.000000 -1.776483 -15.186999 -3.287470 -8.952842 23.589429 11.987118 16.309209 9.620086 4.519289 -7.838638 7.950765 -10.935119 2.229928 0.271836 -1.506431 0.000000 0.000000 0.000000 -1.276103 -12.949641 -3.357458 -11.032447 -18.556642 -6.400894 10.360764 9.346355 -2.902990 1.520073 7.490618 6.111401 -0.810998 -0.144925 0.418151 0.000000 0.000000 0.000000 -2.589754 -14.507072 -4.043243 0.580676 -0.479972 -0.382158 0.151758 -1.026717 -0.399343 1.048539 -0.763782 0.088891 0.000000 0.000000 0.000000 0.874512 -0.495745 -0.423534 1.052514 1.184265 2.278935 -1.148067 14.455250 -1.194167 0.000000 0.000000 0.000000 0.475333 -0.253145 -0.543191 -0.434435 8.862815 -0.538268 -5.593070 -0.211306 -0.954085 40.841652 -60.296220 -27.557006 0.023483 -28.443723 1.400248 0.000000 0.000000 0.000000 1.026365 -0.516605 -0.915133 5.154241 4.929045 -12.661602 1.220997 4.565694 -0.597846 -34.722295 -12.679220 41.083219 -179.930761 72.294281 179.769787 0.000000 0.000000 0.000000 
5.607982 94.738319 -1.072327 0.000000 0.000000 0.000000 -1.758812 -14.773966 -3.246847 -9.047448 23.306071 12.257342 16.313386 9.579992 4.535766 -7.648509 7.751097 -11.176915 2.231512 0.283713 -1.498050 0.000000 0.000000 0.000000 -1.264898 -12.555954 -3.323316 -10.782778 -18.400181 -6.245835 10.412846 9.275539 -2.673698 1.260199 6.926319 5.775434 -0.813767 -0.157711 0.400118 0.000000 0.000000 0.000000 -2.556991 -14.131996 -4.009574 0.533172 -0.474521 -0.279852 0.160529 -1.041414 -0.336749 1.039633 -0.655223 0.052339 0.000000 0.000000 0.000000 0.836851 -0.517532 -0.357538 0.951935 1.175210 2.280418 -1.193735 14.291284 -1.120287 0.000000 0.000000 0.000000 0.442324 -0.256303 -0.492257 -0.408974 8.824134 -0.594276 -5.532883 -0.357974 -0.937676 40.762917 -60.591906 -27.593665 -0.038676 -28.293073 1.356698 0.000000 0.000000 0.000000 1.009808 -0.519019 -0.865636 5.096320 5.011826 -11.586402 1.185908 4.511989 -0.659153 -32.000591 -9.807464 41.093543 -179.740840 73.289760 179.631790 0.000000 0.000000 0.000000 
5.350088 94.777702 -1.053158 0.000000 0.000000 0.000000 -1.716093 -14.326187 -3.181192 -9.137911 22.977931 12.506484 16.273863 9.533815 4.548880 -7.428442 7.563261 -11.425044 2.230644 0.294717 -1.485862 0.000000 0.000000 0.000000 -1.228162 -12.133758 -3.266587 -10.528093 -18.317131 -6.081889 10.429342 9.219987 -2.488761 0.988500 6.408057 5.431877 -0.802117 -0.163074 0.388272 0.000000 0.000000 0.000000 -2.506487 -13.747516 -3.955144 0.481422 -0.478817 -0.188366 0.169054 -1.059442 -0.289256 1.027175 -0.560639 0.017625 0.000000 0.000000 0.000000 0.797915 -0.539198 -0.308771 0.826288 1.155722 2.324900 -1.233055 14.094843 -1.007908 0.000000 0.000000 0.000000 0.408928 -0.261826 -0.455833 -0.392993 8.795060 -0.582034 -5.448020 -0.489864 -0.923799 40.616461 -60.904988 -27.700092 -0.102211 -28.081604 1.310791 0.000000 0.000000 0.000000 0.987624 -0.524875 -0.828137 5.030678 5.084370 -10.415730 1.161895 4.432433 -0.706280 -29.171400 -6.794789 40.944843 -179.522097 74.420280 179.472824 0.000000 0.000000 0.000000 
5.090443 94.806625 -1.020954 0.000000 0.000000 0.000000 -1.645315 -13.869596 -3.084225 -9.224509 22.631161 12.728272 16.197078 9.481994 4.553533 -7.190107 7.387088 -11.677044 2.212898 0.303152 -1.465825 0.000000 0.000000 0.000000 -1.162494 -11.704307 -3.181806 -10.301425 -18.322792 -5.919949 10.442910 9.177647 -2.356586 0.679927 5.948247 5.067846 -0.735459 -0.160737 0.387425 0.000000 0.000000 0.000000 -2.435145 -13.366168 -3.870104 0.427349 -0.492469 -0.111765 0.173501 -1.079375 -0.253501 1.007610 -0.464684 -0.020480 0.000000 0.000000 0.000000 0.750363 -0.559060 -0.273565 0.671929 1.126315 2.392883 -1.269927 13.864860 -0.861389 0.000000 0.000000 0.000000 0.367377 -0.266704 -0.430550 -0.386309 8.782669 -0.513517 -5.349837 -0.615589 -0.905663 40.433617 -61.234722 -27.845614 -0.158853 -27.823846 1.269290 0.000000 0.000000 0.000000 0.955957 -0.532282 -0.800096 4.961861 5.153421 -9.184194 1.146878 4.324283 -0.743959 -26.236374 -3.659719 40.649803 -179.291332 75.713870 179.310579 0.000000 0.000000 0.000000 
4.830905 94.818069 -0.977444 0.000000 0.000000 0.000000 -1.549730 -13.431161 -2.957378 -9.314811 22.294350 12.926961 16.101275 9.430929 4.544430 -6.953618 7.231240 -11.917423 2.184318 0.307951 -1.437513 0.000000 0.000000 0.000000 -1.068933 -11.292774 -3.070891 -10.147064 -18.417204 -5.773756 10.517293 9.153462 -2.276583 0.337975 5.559018 4.702904 -0.649183 -0.153597 0.395272 0.000000 0.000000 0.000000 -2.339596 -12.995259 -3.754646 0.372816 -0.514510 -0.048197 0.169350 -1.098674 -0.221657 0.990496 -0.389485 -0.047338 0.000000 0.000000 0.000000 0.690356 -0.576751 -0.243290 0.488900 1.090864 2.459747 -1.307759 13.601742 -0.693818 0.000000 0.000000 0.000000 0.312374 -0.268746 -0.408091 -0.387628 8.786290 -0.420625 -5.259126 -0.723852 -0.886081 40.292676 -61.567831 -27.963674 -0.202147 -27.539123 1.240402 0.000000 0.000000 0.000000 0.910972 -0.539035 -0.774243 4.891609 5.226252 -7.935628 1.143919 4.213387 -0.779874 -23.231019 -0.446226 40.261397 -179.064556 77.221115 179.155234 0.000000 0.000000 0.000000 
4.568563 94.809502 -0.935532 0.000000 0.000000 0.000000 -1.432938 -13.034416 -2.810820 -9.409140 21.985932 13.109332 16.003980 9.388800 4.516855 -6.731672 7.104554 -12.142512 2.158864 0.310355 -1.405482 0.000000 0.000000 0.000000 -0.947553 -10.920240 -2.940780 -10.092299 -18.587325 -5.642830 10.704394 9.157983 -2.248868 -0.001939 5.250085 4.377929 -0.592224 -0.146211 0.404263 0.000000 0.000000 0.000000 -2.212180 -12.648509 -3.615148 0.317375 -0.543421 0.008063 0.154528 -1.116814 -0.184412 0.984122 -0.325096 -0.068131 0.000000 0.000000 0.000000 0.611935 -0.591216 -0.207595 0.277076 1.051816 2.506623 -1.347486 13.314593 -0.520532 0.000000 0.000000 0.000000 0.241905 -0.268364 -0.379959 -0.393326 8.805654 -0.337979 -5.181429 -0.828623 -0.866354 40.253293 -61.885885 -27.998557 -0.233365 -27.246714 1.228433 0.000000 0.000000 0.000000 0.850950 -0.542392 -0.741078 4.825642 5.310935 -6.711590 1.149108 4.099316 -0.819947 -20.206427 2.784599 39.854741 -178.821784 79.022516 178.976720 0.000000 0.000000 0.000000 
4.301038 94.789711 -0.894688 0.000000 0.000000 0.000000 -1.291351 -12.683391 -2.660461 -9.513600 21.714078 13.286352 15.912857 9.360740 4.469934 -6.527496 7.013308 -12.355802 2.144055 0.312259 -1.374458 0.000000 0.000000 0.000000 -0.803100 -10.600616 -2.803912 -10.139278 -18.800425 -5.522076 10.994074 9.201281 -2.264402 -0.330429 5.021433 4.125756 -0.563777 -0.142749 0.411238 0.000000 0.000000 0.000000 -2.046945 -12.326053 -3.463705 0.257080 -0.575197 0.066557 0.126650 -1.132309 -0.134906 0.973117 -0.272139 -0.085311 0.000000 0.000000 0.000000 0.517026 -0.601624 -0.158815 0.044796 1.013533 2.516247 -1.388532 13.013994 -0.359921 0.000000 0.000000 0.000000 0.155973 -0.262971 -0.339104 -0.399967 8.839300 -0.300083 -5.111425 -0.917129 -0.850697 40.374064 -62.176667 -27.894045 -0.257753 -26.964928 1.232074 0.000000 0.000000 0.000000 0.774820 -0.540928 -0.693348 4.765670 5.415241 -5.552388 1.170924 4.004431 -0.843710 -17.227875 5.977976 39.513532 -178.473226 81.154088 178.672394 0.000000 0.000000 0.000000 
4.025249 94.772385 -0.867653 0.000000 0.000000 0.000000 -1.130185 -12.367202 -2.521105 -9.632989 21.474752 13.468365 15.824812 9.345502 4.409152 -6.330860 6.952231 -12.567366 2.136667 0.315194 -1.345801 0.000000 0.000000 0.000000 -0.630746 -10.319284 -2.672107 -10.254117 -19.020617 -5.386592 11.341366 9.272998 -2.325416 -0.664438 4.855181 3.930795 -0.531959 -0.144283 0.417293 0.000000 0.000000 0.000000 -1.844560 -12.036121 -3.317926 0.186609 -0.606350 0.136409 0.085930 -1.142416 -0.071495 0.955735 -0.217197 -0.092415 0.000000 0.000000 0.000000 0.411131 -0.606903 -0.094863 -0.202707 0.976979 2.483369 -1.427059 12.708514 -0.223316 0.000000 0.000000 0.000000 0.057496 -0.252587 -0.283037 -0.405337 8.882186 -0.326997 -5.041894 -0.985654 -0.842735 40.664498 -62.428271 -27.633612 -0.279674 -26.722417 1.250446 0.000000 0.000000 0.000000 0.684965 -0.534108 -0.629363 4.715365 5.535662 -4.480247 1.211428 3.910690 -0.859207 -14.359399 9.082388 39.321170 -177.753160 83.614411 177.968652 0.000000 0.000000 0.000000 
